HIERARCHY
ROOT Hips
{
 OFFSET 0.000000 0.000000 0.000000
 CHANNELS 6 Xposition Yposition Zposition Yrotation Xrotation Zrotation
 JOINT Chest
 {
  OFFSET 0.000000 9.585900 0.002600
  CHANNELS 3 Yrotation Xrotation Zrotation
  JOINT Chest2
  {
   OFFSET 0.000000 9.601200 -0.005300
   CHANNELS 3 Yrotation Xrotation Zrotation
   JOINT Chest3
   {
    OFFSET 0.000000 9.561800 0.000000
    CHANNELS 3 Yrotation Xrotation Zrotation
    JOINT Chest4
    {
     OFFSET 0.000000 9.552100 0.000000
     CHANNELS 3 Yrotation Xrotation Zrotation
     JOINT Neck
     {
      OFFSET 0.000000 14.453000 0.000000
      CHANNELS 3 Yrotation Xrotation Zrotation
      JOINT Head
      {
       OFFSET 0.000000 8.936500 -0.011300
       CHANNELS 3 Yrotation Xrotation Zrotation
       End Site
       {
        OFFSET 0.000000 17.073600 -0.006000
       }
      }
     }
     JOINT RightCollar
     {
      OFFSET -2.921100 9.558500 0.000000
      CHANNELS 3 Yrotation Xrotation Zrotation
      JOINT RightShoulder
      {
       OFFSET -13.519700 0.000000 0.000000
       CHANNELS 3 Yrotation Xrotation Zrotation
       JOINT RightElbow
       {
        OFFSET 0.000000 -29.696600 0.000000
        CHANNELS 3 Yrotation Xrotation Zrotation
        JOINT RightWrist
        {
         OFFSET 0.000000 -24.004700 0.000000
         CHANNELS 3 Yrotation Xrotation Zrotation
         End Site
         {
          OFFSET 0.000000 -17.728500 0.000000
         }
        }
       }
      }
     }
     JOINT LeftCollar
     {
      OFFSET 2.921100 9.558500 0.000000
      CHANNELS 3 Yrotation Xrotation Zrotation
      JOINT LeftShoulder
      {
       OFFSET 13.519700 0.000000 0.000000
       CHANNELS 3 Yrotation Xrotation Zrotation
       JOINT LeftElbow
       {
        OFFSET 0.000000 -29.696600 0.000000
        CHANNELS 3 Yrotation Xrotation Zrotation
        JOINT LeftWrist
        {
         OFFSET 0.000000 -24.004700 0.000000
         CHANNELS 3 Yrotation Xrotation Zrotation
         End Site
         {
          OFFSET 0.000000 -17.728500 0.000000
         }
        }
       }
      }
     }
    }
   }
  }
 }
 JOINT RightHip
 {
  OFFSET -7.771700 -0.012900 -0.001300
  CHANNELS 3 Yrotation Xrotation Zrotation
  JOINT RightKnee
  {
   OFFSET 0.000000 -40.869800 0.001200
   CHANNELS 3 Yrotation Xrotation Zrotation
   JOINT RightAnkle
   {
    OFFSET 0.000000 -39.717900 0.002100
    CHANNELS 3 Yrotation Xrotation Zrotation
    JOINT RightToe
    {
     OFFSET 0.000000 -4.965400 11.033500
     CHANNELS 3 Yrotation Xrotation Zrotation
     End Site
     {
      OFFSET 0.000000 -1.423100 5.872300
     }
    }
   }
  }
 }
 JOINT LeftHip
 {
  OFFSET 7.771700 -0.012900 -0.001300
  CHANNELS 3 Yrotation Xrotation Zrotation
  JOINT LeftKnee
  {
   OFFSET 0.000000 -40.869800 0.001200
   CHANNELS 3 Yrotation Xrotation Zrotation
   JOINT LeftAnkle
   {
    OFFSET 0.000000 -39.717900 0.002100
    CHANNELS 3 Yrotation Xrotation Zrotation
    JOINT LeftToe
    {
     OFFSET 0.000000 -4.965400 11.033500
     CHANNELS 3 Yrotation Xrotation Zrotation
     End Site
     {
      OFFSET 0.000000 -1.423100 5.872300
     }
    }
   }
  }
 }
}
MOTION
Frames: 9
Frame Time: 0.008333
7.400573 52.958267 39.288055 170.340386 -40.010006 -2.048339 3.944238 22.170980 3.107269 0.514486 3.173952 0.552134 0.812038 5.075048 0.876423 3.533650 18.631597 3.741095 0.978228 15.410865 -1.004119 2.193578 -7.148438 -2.232236 -4.989902 -1.431636 -2.793873 -2.284428 0.182250 3.295097 -175.621078 -78.496518 -169.462774 3.866172 6.632542 -0.779429 -2.919468 -0.387757 0.128807 3.573777 -1.675680 3.153992 113.591806 -73.812936 -135.136378 -7.339338 -0.504265 9.237032 -3.061174 -41.395981 4.027294 176.399797 86.395398 -179.936011 -1.993195 -11.357056 -1.387573 0.065947 -0.076626 0.083512 0.645844 -37.775650 6.666578 74.828874 82.816539 64.917194 -5.708453 -12.213051 9.252437 0.428338 1.621006 0.221203
7.419629 52.911195 39.270100 170.377272 -39.960613 -2.036946 3.915070 22.149045 3.085085 0.527978 3.196060 0.563102 0.796488 5.054758 0.867611 3.529540 18.632002 3.741994 1.003323 15.430251 -0.990200 2.184143 -7.176313 -2.240547 -4.958054 -1.391589 -2.791161 -2.287270 0.158010 3.268418 -176.014076 -78.443532 -169.080613 3.876350 6.622531 -0.766501 -2.930759 -0.399462 0.122191 3.568720 -1.679785 3.155560 113.992468 -73.858022 -135.527277 -7.401948 -0.445625 9.057801 -3.042411 -41.448633 3.996067 176.300778 86.353021 179.984616 -1.996143 -11.397012 -1.408648 0.084397 -0.087412 0.070412 0.695936 -37.835629 6.669733 74.931266 82.893297 65.010518 -5.764277 -12.265694 9.290803 0.456565 1.657476 0.237719
7.434903 52.867926 39.252366 170.418082 -39.916056 -2.012084 3.891854 22.151071 3.060012 0.528852 3.200048 0.564818 0.792819 5.054240 0.868337 3.509426 18.610981 3.731423 1.018813 15.439193 -0.981742 2.185423 -7.194070 -2.243975 -4.924416 -1.354546 -2.785811 -2.309442 0.127850 3.246598 -176.218284 -78.416496 -168.865315 3.859482 6.610265 -0.790659 -2.936192 -0.365942 0.128689 3.559399 -1.728656 3.140550 114.323468 -73.890401 -135.856587 -7.459091 -0.390219 8.875573 -3.018749 -41.494763 3.940680 175.937934 86.310969 179.639978 -2.015949 -11.447204 -1.431247 0.072861 -0.083995 0.077502 0.743617 -37.886365 6.642466 75.017497 82.953533 65.083492 -5.797669 -12.312185 9.327907 0.464526 1.690863 0.241498
7.442233 52.826695 39.235525 170.475894 -39.864437 -1.962129 3.876993 22.201858 3.033077 0.483137 3.126681 0.530810 0.826110 5.118745 0.898513 3.476130 18.574869 3.716489 0.999337 15.398539 -0.997984 2.286732 -7.135313 -2.208955 -4.902011 -1.351578 -2.788942 -2.350443 0.083108 3.231291 -176.218096 -78.427810 -168.832871 3.937872 6.604988 -0.771356 -2.959298 -0.325167 0.130668 3.549860 -1.806125 3.119828 114.563395 -73.895685 -136.103440 -7.501991 -0.351466 8.715753 -2.999178 -41.552005 3.847154 175.623911 86.258731 179.323829 -2.040035 -11.502574 -1.448145 0.069500 -0.079675 0.084485 0.800209 -37.938012 6.565474 75.105787 83.003758 65.145496 -5.833296 -12.370533 9.361659 0.468920 1.734917 0.255437
7.452915 52.790263 39.218481 170.495926 -39.832468 -1.919574 3.859920 22.214696 2.996560 0.477453 3.110399 0.525162 0.842071 5.163513 0.915802 3.481527 18.618514 3.733428 0.991407 15.331276 -1.011436 2.306563 -7.147640 -2.204256 -4.914500 -1.442012 -2.806572 -2.358186 0.087427 3.213497 -175.988119 -78.432706 -169.034994 3.993311 6.602401 -0.765038 -2.994899 -0.428500 0.104716 3.539785 -1.814540 3.117385 114.640368 -73.882073 -136.205737 -7.521114 -0.339941 8.607578 -3.011591 -41.585662 3.817723 175.797025 86.218116 179.470841 -2.036045 -11.544237 -1.462026 0.068921 -0.083634 0.080021 0.854559 -37.969190 6.520648 75.165508 83.041137 65.184367 -5.830273 -12.402936 9.401859 0.458561 1.751231 0.243612
7.454484 52.750361 39.208613 170.522185 -39.745360 -1.846527 3.829137 22.192087 2.930274 0.493260 3.154859 0.541832 0.820864 5.120940 0.897772 3.471000 18.621820 3.728350 1.004732 15.320288 -1.004159 2.327794 -7.170084 -2.197747 -4.909556 -1.481501 -2.808498 -2.321977 0.096792 3.163890 -175.496780 -78.440756 -169.536685 3.927338 6.614883 -0.793769 -3.012276 -0.440143 0.099877 3.525637 -1.861681 3.109524 114.599237 -73.843047 -136.204616 -7.516086 -0.362693 8.568253 -3.099247 -41.686199 3.791181 175.818824 86.165896 179.401681 -2.025986 -11.574460 -1.482691 0.065464 -0.093980 0.075151 0.911664 -38.057793 6.418147 75.249224 83.048429 65.236716 -5.808222 -12.432112 9.436397 0.427292 1.774732 0.218038
7.462161 52.715745 39.198646 170.558101 -39.682027 -1.826153 3.820482 22.205550 2.927898 0.491131 3.155850 0.540622 0.798316 5.076477 0.877480 3.465507 18.623670 3.725131 1.026858 15.338356 -0.989579 2.347799 -7.193266 -2.187910 -4.872199 -1.471151 -2.800257 -2.321317 0.053297 3.128578 -175.011776 -78.494840 -170.015484 3.914274 6.593378 -0.869988 -3.050131 -0.388805 0.092144 3.530022 -1.946297 3.104901 114.454737 -73.794756 -136.106784 -7.496827 -0.418948 8.600407 -3.152761 -41.750370 3.776083 175.929336 86.133818 179.483998 -2.012226 -11.608830 -1.501531 0.063427 -0.095713 0.067680 0.971887 -38.115035 6.404040 75.116570 83.105006 65.094992 -5.904849 -12.468085 9.453147 0.488695 1.817506 0.258429
7.465557 52.684178 39.189141 170.593493 -39.624957 -1.788411 3.797794 22.211404 2.901156 0.489370 3.156824 0.539282 0.802196 5.093815 0.881645 3.434611 18.581126 3.699303 1.073506 15.396976 -0.957451 2.318585 -7.270734 -2.203068 -4.837385 -1.460813 -2.791312 -2.308931 -0.002871 3.093384 -174.582981 -78.561590 -170.451052 3.899496 6.564597 -0.961218 -3.078629 -0.379484 0.083799 3.452711 -2.005948 3.095817 114.286378 -73.757531 -135.919028 -7.475203 -0.500595 8.698586 -3.151427 -41.812105 3.712212 175.906373 86.098633 179.456612 -2.012173 -11.644853 -1.512124 0.061979 -0.100002 0.055722 1.019264 -38.166671 6.352591 75.082062 83.125121 65.041589 -5.959476 -12.487096 9.483588 0.510070 1.839461 0.261315
7.464390 52.654083 39.181972 170.624387 -39.560998 -1.727503 3.768845 22.209132 2.853376 0.487749 3.158178 0.537803 0.805610 5.111252 0.885447 3.410296 18.571607 3.678336 1.099181 15.397706 -0.941566 2.345812 -7.300296 -2.189312 -4.808991 -1.479876 -2.787975 -2.288307 -0.069413 3.062564 -174.312146 -78.633306 -170.743344 3.886868 6.535171 -1.057236 -3.109095 -0.403070 0.069560 3.364155 -2.065069 3.085680 114.168815 -73.737566 -135.766741 -7.457195 -0.600510 8.843959 -3.191554 -41.885045 3.658466 175.909600 86.061987 179.408422 -2.009438 -11.673433 -1.524958 0.060547 -0.107062 0.051530 1.064597 -38.225924 6.259801 75.121116 83.112260 65.052322 -5.960325 -12.495955 9.493748 0.483763 1.846583 0.262141
